sfk_cyclingleg_states
version=1
nRows=8
nColumns=53
inDegrees=yes

# SIMM Motion File Header:
name sfk_cyclingleg_states
datacolumns 53
datarows 8
otherdata 1
range 0.86262172 0.86417199
endheader
time	/jointset/bb/crank_angle/value	/jointset/bb/crank_angle/speed	/jointset/spindle/pedal_angle_r/value	/jointset/spindle/pedal_angle_r/speed	/jointset/ground_pelvis/pelvis_tilt/value	/jointset/ground_pelvis/pelvis_tilt/speed	/jointset/ground_pelvis/pelvis_list/value	/jointset/ground_pelvis/pelvis_list/speed	/jointset/ground_pelvis/pelvis_rotation/value	/jointset/ground_pelvis/pelvis_rotation/speed	/jointset/ground_pelvis/pelvis_tx/value	/jointset/ground_pelvis/pelvis_tx/speed	/jointset/ground_pelvis/pelvis_ty/value	/jointset/ground_pelvis/pelvis_ty/speed	/jointset/ground_pelvis/pelvis_tz/value	/jointset/ground_pelvis/pelvis_tz/speed	/jointset/hip_r/hip_angle_r/value	/jointset/hip_r/hip_angle_r/speed	/jointset/hip_r/hip_adduction_r/value	/jointset/hip_r/hip_adduction_r/speed	/jointset/hip_r/hip_rotation_r/value	/jointset/hip_r/hip_rotation_r/speed	/jointset/knee_r/knee_angle_r/value	/jointset/knee_r/knee_angle_r/speed	/jointset/knee_r/tib_tx_r/value	/jointset/knee_r/tib_tx_r/speed	/jointset/knee_r/tib_ty_r/value	/jointset/knee_r/tib_ty_r/speed	/jointset/tib_pat_r/pat_angle_r/value	/jointset/tib_pat_r/pat_angle_r/speed	/jointset/tib_pat_r/pat_tx_r/value	/jointset/tib_pat_r/pat_tx_r/speed	/jointset/tib_pat_r/pat_ty_r/value	/jointset/tib_pat_r/pat_ty_r/speed	/jointset/ankle_r/ankle_angle_r/value	/jointset/ankle_r/ankle_angle_r/speed	/jointset/subtalar_r/subtalar_angle_r/value	/jointset/subtalar_r/subtalar_angle_r/speed	/jointset/mtp_r/mtp_angle_r/value	/jointset/mtp_r/mtp_angle_r/speed	/forceset/bifemlh_r/activation	/forceset/bifemlh_r/fiber_length	/forceset/bifemsh_r/activation	/forceset/bifemsh_r/fiber_length	/forceset/glut_max2_r/activation	/forceset/glut_max2_r/fiber_length	/forceset/vas_int_r/activation	/forceset/vas_int_r/fiber_length	/forceset/med_gas_r/activation	/forceset/med_gas_r/fiber_length	/forceset/tib_ant_r/activation	/forceset/tib_ant_r/fiber_length
      0.86262172	   -424.31289276	   -480.13863232	    433.60411933	    563.35800696	      0.00000000	      0.00000000	     -0.00000000	      0.00000000	     -0.00000000	     -0.00000000	      0.00000000	      0.00000000	     -0.00000000	      0.00000000	      0.00000000	      0.00000000	     77.39371426	   -162.10033508	      4.29303095	      1.70412950	     -1.58695267	     21.45326735	    -90.23929693	    273.19073299	      0.00379253	      0.03738420	     -0.48601906	      0.09475672	     17.56750392	     -0.93893451	      0.03266811	      0.10470340	     -0.02270816	      0.01020450	     22.65737566	    -29.21580638	     -0.00000000	      0.00000000	     -0.00000000	     -0.00000000	     -0.08562043	      0.14048581	     -0.08562043	      0.15152997	     -0.08562043	      0.15379847	     -0.08562043	      0.14842113	     -0.08562043	      0.13563727	     -0.08562043	      0.11595694
      0.86295554	   -424.47317361	   -480.13863232	    433.79216668	    563.27441239	      0.00000000	      0.00000000	     -0.00000000	      0.00000000	     -0.00000000	     -0.00000000	      0.00000000	      0.00000000	     -0.00000000	      0.00000000	      0.00000000	      0.00000000	     77.33954222	   -162.45589583	      4.29359911	      1.69983417	     -1.57979104	     21.45358018	    -90.14807682	    273.32850691	      0.00380498	      0.03722203	     -0.48598742	      0.09480131	     17.56719121	     -0.93461734	      0.03270306	      0.10466500	     -0.02270476	      0.01015355	     22.64764556	    -29.07929956	     -0.00000000	      0.00000000	     -0.00000000	     -0.00000000	     -0.08566341	      0.14047343	     -0.08566341	      0.15156435	     -0.08566341	      0.15377506	     -0.08566341	      0.14837095	     -0.08566341	      0.13563996	     -0.08566341	      0.11596559
      0.86308621	   -424.53591334	   -480.13863232	    433.86576764	    563.24175487	      0.00000000	      0.00000000	     -0.00000000	      0.00000000	     -0.00000000	     -0.00000000	      0.00000000	      0.00000000	     -0.00000000	      0.00000000	      0.00000000	      0.00000000	     77.31830503	   -162.59473070	      4.29382112	      1.69814810	     -1.57698769	     21.45369503	    -90.11235747	    273.38212197	      0.00380984	      0.03715847	     -0.48597503	      0.09481861	     17.56706919	     -0.93290949	      0.03271673	      0.10464984	     -0.02270344	      0.01013355	     22.64384926	    -29.02582998	     -0.00000000	      0.00000000	     -0.00000000	     -0.00000000	     -0.08568023	      0.14046857	     -0.08568023	      0.15157784	     -0.08568023	      0.15376588	     -0.08568023	      0.14835129	     -0.08568023	      0.13564605	     -0.08568023	      0.11596897
      0.86332879	   -424.65238260	   -480.13863232	    434.00238823	    563.18122560	      0.00000000	      0.00000000	     -0.00000000	      0.00000000	     -0.00000000	     -0.00000000	      0.00000000	      0.00000000	     -0.00000000	      0.00000000	      0.00000000	      0.00000000	     77.27883252	   -162.85194814	      4.29423266	      1.69501110	     -1.57178355	     21.45389695	    -90.04602999	    273.48118299	      0.00381884	      0.03704036	     -0.48595203	      0.09485048	     17.56684328	     -0.92971226	      0.03274212	      0.10462150	     -0.02270099	      0.01009631	     22.63682039	    -28.92651666	     -0.00000000	      0.00000000	     -0.00000000	     -0.00000000	     -0.08571146	      0.14045953	     -0.08571146	      0.15160291	     -0.08571146	      0.15374879	     -0.08571146	      0.14831477	     -0.08571146	      0.13566447	     -0.08571146	      0.11597523
      0.86367131	   -424.81683941	   -480.13863232	    434.19527413	    563.09596817	      0.00000000	      0.00000000	     -0.00000000	      0.00000000	     -0.00000000	     -0.00000000	      0.00000000	      0.00000000	     -0.00000000	      0.00000000	      0.00000000	      0.00000000	     77.22299052	   -163.21400682	      4.29481248	      1.69056617	     -1.56443513	     21.45415734	    -89.95233356	    273.62002050	      0.00383150	      0.03687335	     -0.48591953	      0.09489494	     17.56652561	     -0.92513832	      0.03277794	      0.10458106	     -0.02269754	      0.01004350	     22.62693653	    -28.78616783	     -0.00000000	      0.00000000	     -0.00000000	     -0.00000000	     -0.08575556	      0.14044675	     -0.08575556	      0.15163839	     -0.08575556	      0.15372459	     -0.08575556	      0.14826316	     -0.08575556	      0.13577209	     -0.08575556	      0.11598402
      0.86371870	   -424.83959227	   -480.13863232	    434.22195790	    563.08419206	      0.00000000	      0.00000000	     -0.00000000	      0.00000000	     -0.00000000	     -0.00000000	      0.00000000	      0.00000000	     -0.00000000	      0.00000000	      0.00000000	      0.00000000	     77.21525494	   -163.26399337	      4.29489257	      1.68994979	     -1.56341846	     21.45419110	    -89.93936677	    273.63913315	      0.00383325	      0.03685022	     -0.48591504	      0.09490104	     17.56648179	     -0.92450003	      0.03278290	      0.10457542	     -0.02269706	      0.01003615	     22.62557286	    -28.76673968	     -0.00000000	      0.00000000	     -0.00000000	     -0.00000000	     -0.08576166	      0.14044497	     -0.08576166	      0.15164331	     -0.08576166	      0.15372124	     -0.08576166	      0.14825601	     -0.08576166	      0.13574645	     -0.08576166	      0.11598524
      0.86384665	   -424.90102599	   -480.13863232	    434.29400247	    563.05241952	      0.00000000	      0.00000000	     -0.00000000	      0.00000000	     -0.00000000	     -0.00000000	      0.00000000	      0.00000000	     -0.00000000	      0.00000000	      0.00000000	      0.00000000	     77.19435669	   -163.39883196	      4.29510870	      1.68828382	     -1.56067339	     21.45427952	    -89.90435136	    273.69062192	      0.00383796	      0.03678773	     -0.48590289	      0.09491746	     17.56636361	     -0.92276997	      0.03279628	      0.10456016	     -0.02269578	      0.01001625	     22.62189552	    -28.71426994	     -0.00000000	      0.00000000	     -0.00000000	     -0.00000000	     -0.08577814	      0.14044019	     -0.08577814	      0.15165660	     -0.08577814	      0.15371217	     -0.08577814	      0.14823671	     -0.08577814	      0.13573751	     -0.08577814	      0.11598851
      0.86417199	   -425.05723712	   -480.13863232	    434.47717614	    562.97178346	      0.00000000	      0.00000000	     -0.00000000	      0.00000000	     -0.00000000	     -0.00000000	      0.00000000	      0.00000000	     -0.00000000	      0.00000000	      0.00000000	      0.00000000	     77.14113988	   -163.74085727	      4.29565728	      1.68403642	     -1.55369330	     21.45448649	    -89.81528603	    273.82078148	      0.00384990	      0.03662868	     -0.48587200	      0.09495881	     17.56606411	     -0.91832703	      0.03283029	      0.10452105	     -0.02269253	      0.00996530	     22.61257516	    -28.58076787	     -0.00000000	      0.00000000	     -0.00000000	     -0.00000000	     -0.08582003	      0.14042799	     -0.08582003	      0.15169043	     -0.08582003	      0.15368907	     -0.08582003	      0.14818759	     -0.08582003	      0.13573989	     -0.08582003	      0.11599680
